<?xml version="1.0" standalone="no"?>
<!DOCTYPE svg PUBLIC "-//W3C//DTD SVG 20010904//EN"
 "http://www.w3.org/TR/2001/REC-SVG-20010904/DTD/svg10.dtd">
<svg version="1.0" xmlns="http://www.w3.org/2000/svg"
 width="1680.000000pt" height="1680.000000pt" viewBox="0 0 1680.000000 1680.000000"
 preserveAspectRatio="xMidYMid meet">
<metadata>
Created by potrace 1.14, written by Peter Selinger 2001-2017
</metadata>
<g transform="translate(0.000000,1680.000000) scale(0.100000,-0.100000)"
fill="#000000" stroke="none">
<path d="M8097 14229 c-1471 -76 -2854 -703 -3880 -1759 -917 -943 -1478
-2135 -1622 -3442 -42 -389 -43 -944 0 -1254 l6 -42 -163 -87 c-1247 -669
-2088 -1352 -2347 -1905 -207 -443 -54 -821 451 -1106 482 -273 1313 -477
2277 -559 162 -14 196 -15 206 -3 7 7 162 198 345 423 183 226 336 410 341
410 4 0 59 -64 121 -141 453 -567 1012 -1051 1633 -1413 731 -427 1518 -678
2405 -768 246 -24 814 -24 1060 0 1233 125 2290 566 3235 1353 167 139 560
532 699 699 321 385 560 753 776 1190 528 1071 711 2272 529 3473 -80 530
-245 1071 -479 1574 l-78 167 27 5 c54 11 302 46 496 70 810 102 1474 107
1921 16 434 -89 689 -271 720 -515 7 -52 9 -56 15 -30 12 54 9 160 -7 220 -58
224 -293 373 -715 454 -506 97 -1378 74 -2366 -63 l-163 -22 -66 115 c-598
1047 -1523 1900 -2604 2402 -868 402 -1821 588 -2773 538z m-3943 -4717 c52
-36 76 -84 76 -150 0 -68 -23 -117 -72 -152 -159 -115 -364 65 -273 240 50 95
180 126 269 62z m8096 -670 l0 -119 -107 -11 c-136 -13 -195 -32 -271 -83
-109 -72 -169 -192 -192 -379 -5 -46 -10 -248 -10 -447 l0 -363 -125 0 -125 0
0 740 0 740 125 0 125 0 0 -127 c1 -103 3 -125 13 -111 7 9 30 42 52 73 94
133 240 201 443 204 l72 1 0 -118z m-5629 78 c105 -36 212 -119 274 -213 l18
-28 25 38 c63 96 154 166 263 204 77 26 242 32 329 10 193 -47 329 -186 380
-387 19 -72 20 -112 20 -591 l0 -513 -125 0 -125 0 0 470 c0 493 -3 537 -45
620 -57 112 -159 165 -304 158 -136 -7 -192 -46 -255 -178 l-31 -65 -3 -502
-3 -503 -129 0 -129 0 -3 503 c-3 493 -3 503 -25 557 -51 124 -133 181 -274
188 -158 8 -229 -30 -299 -159 l-35 -64 -3 -512 -3 -513 -130 0 -130 0 3 538
c5 583 6 599 63 695 35 60 116 153 163 188 48 35 131 66 211 79 85 14 230 4
302 -20z m2452 0 c260 -66 473 -284 543 -555 24 -94 24 -284 1 -380 -65 -260
-287 -484 -547 -552 -80 -21 -244 -23 -320 -4 -70 17 -183 69 -237 110 l-43
31 0 141 0 141 37 -33 c114 -99 234 -149 362 -149 147 0 256 45 357 146 98 98
144 213 144 359 0 291 -213 515 -489 515 -148 0 -270 -51 -369 -154 -75 -78
-107 -133 -134 -232 -22 -77 -22 -93 -26 -811 l-3 -733 -125 0 -125 0 3 773
c4 874 -1 818 88 1002 106 221 311 371 555 405 86 13 239 3 328 -20z m1557 20
c171 -25 285 -84 415 -215 92 -93 166 -199 149 -214 -5 -5 -216 -143 -470
-308 l-461 -300 -51 88 c-29 49 -52 92 -52 97 0 5 160 116 356 246 l356 238
-33 34 c-19 20 -67 51 -107 71 -64 32 -83 37 -171 41 -158 7 -266 -29 -370
-123 -114 -104 -164 -220 -165 -385 -1 -178 53 -303 183 -423 104 -95 209
-137 346 -137 266 0 456 160 549 462 4 15 17 10 90 -30 64 -35 86 -52 86 -67
-1 -35 -75 -199 -123 -272 -69 -104 -170 -194 -269 -242 -241 -115 -537 -103
-761 30 -92 54 -211 174 -265 264 -68 116 -94 209 -99 355 -9 238 56 415 209
570 170 173 416 255 658 220z m-6452 -887 c-4 -861 -4 -879 -25 -955 -12 -42
-33 -99 -48 -127 -79 -157 -258 -231 -557 -231 l-88 0 0 114 0 113 118 5 c173
8 257 47 305 143 34 69 37 140 37 982 l0 833 131 0 130 0 -3 -877z m514 425
c5 -484 7 -508 59 -610 32 -62 104 -133 162 -159 44 -20 68 -24 157 -24 87 0
113 4 152 22 59 27 141 103 175 161 52 88 55 122 60 610 l5 452 124 0 124 0 0
-464 c0 -492 -4 -547 -49 -667 -29 -78 -111 -191 -173 -240 -66 -52 -147 -93
-229 -115 -88 -24 -280 -24 -369 0 -161 44 -302 156 -373 297 -71 143 -71 138
-75 692 l-3 497 125 0 124 0 4 -452z m7926 -490 c-3 -305 -4 -326 -24 -369
-53 -114 -146 -173 -274 -173 -176 0 -303 125 -303 299 0 115 64 214 171 266
69 34 170 33 237 -2 l50 -25 3 -57 3 -57 -44 31 c-80 56 -181 52 -249 -9 -50
-45 -68 -85 -68 -152 0 -63 18 -106 61 -147 42 -40 77 -53 139 -53 89 0 137
31 176 115 23 49 24 56 24 353 l0 302 51 0 50 0 -3 -322z m528 22 c24 -12 66
-47 94 -77 l51 -56 -88 -57 c-48 -31 -133 -86 -189 -122 l-100 -65 -21 36 -21
36 139 92 c76 51 139 97 139 102 0 16 -80 41 -132 41 -73 0 -133 -31 -170 -89
-26 -41 -29 -53 -26 -112 4 -77 29 -123 91 -166 50 -35 138 -43 202 -18 50 19
108 80 125 131 l11 33 34 -20 c30 -18 33 -23 25 -44 -34 -90 -95 -159 -167
-191 -60 -26 -186 -24 -248 4 -174 79 -232 290 -124 448 75 110 251 154 375
94z m-1231 -445 c27 -26 31 -54 15 -85 -42 -79 -163 -20 -129 62 21 51 76 62
114 23z m-9091 -905 c114 -359 281 -754 443 -1046 l50 -91 -136 -32 c-409 -94
-804 -134 -1117 -112 -348 24 -573 96 -709 227 -63 60 -94 121 -102 199 -31
303 427 763 1302 1303 l129 81 52 -207 c29 -114 68 -259 88 -322z m5936 455
c0 -25 -1 -25 -79 -25 -84 0 -111 -12 -111 -49 0 -25 25 -45 100 -79 81 -37
105 -62 105 -113 0 -29 -7 -46 -27 -66 -25 -25 -35 -27 -123 -31 l-95 -4 0 26
c0 26 0 26 84 26 95 0 119 13 114 59 -2 21 -17 33 -80 66 -104 55 -118 69
-118 120 0 30 6 47 23 62 28 26 45 30 135 32 70 1 72 0 72 -24z m2090 0 c0
-25 -1 -25 -84 -25 -48 0 -88 -5 -91 -10 -6 -10 26 -50 149 -185 37 -41 47
-47 56 -35 15 22 12 77 -6 112 -21 41 0 58 28 22 29 -36 33 -87 13 -140 l-17
-46 28 -29 28 -29 -24 0 c-13 0 -33 9 -45 20 -21 20 -23 20 -56 3 -44 -23
-133 -23 -177 1 -46 24 -72 71 -72 128 0 41 5 54 35 87 35 38 35 39 18 68 -34
60 0 81 130 82 86 1 87 1 87 -24z m560 0 c0 -25 -1 -25 -79 -25 -84 0 -111
-12 -111 -49 0 -25 25 -45 100 -79 81 -37 105 -62 105 -113 0 -29 -7 -46 -27
-66 -25 -25 -35 -27 -123 -31 l-95 -4 0 26 c0 26 0 26 84 26 95 0 119 13 114
59 -2 21 -17 33 -80 66 -104 55 -118 69 -118 120 0 30 6 47 23 62 28 26 45 30
135 32 70 1 72 0 72 -24z m874 -8 c8 -12 7 -21 -5 -32 -21 -21 -49 -9 -49 20
0 36 34 44 54 12z m-2014 -47 l0 -40 40 0 c36 0 40 -2 40 -25 0 -22 -4 -25
-40 -25 l-40 0 0 -73 c0 -80 9 -97 52 -97 24 0 28 -4 28 -26 0 -26 -2 -26 -42
-20 -72 11 -78 25 -78 197 0 142 1 149 20 149 17 0 20 -7 20 -40z m-1390 -128
c0 -105 13 -132 66 -132 59 0 74 25 74 130 0 83 1 90 20 90 19 0 20 -7 20 -99
0 -83 -3 -102 -20 -124 -47 -59 -143 -56 -181 7 -15 25 -19 50 -19 124 0 85 1
92 20 92 18 0 20 -7 20 -88z m447 63 c94 -62 74 -200 -34 -236 -43 -14 -103 4
-103 31 0 15 6 17 46 12 52 -6 87 9 103 45 17 37 13 59 -15 92 -36 43 -93 44
-135 2 l-29 -29 0 -141 c0 -134 -1 -141 -20 -141 -19 0 -20 7 -20 144 0 132 2
146 23 177 43 65 122 84 184 44z m310 0 c94 -62 74 -200 -34 -236 -43 -14
-103 4 -103 31 0 15 6 17 46 12 52 -6 87 9 103 45 17 37 13 59 -15 92 -36 43
-93 44 -135 2 l-29 -29 0 -141 c0 -134 -1 -141 -20 -141 -19 0 -20 7 -20 144
0 132 2 146 23 177 43 65 122 84 184 44z m273 9 c93 -37 109 -173 26 -227 -91
-60 -209 1 -209 108 0 54 23 92 74 117 42 22 58 22 109 2z m280 -4 c0 -14 -7
-20 -21 -20 -11 0 -34 -13 -50 -29 -28 -28 -29 -34 -29 -115 0 -79 -2 -86 -20
-86 -19 0 -20 7 -20 130 0 123 1 130 20 130 14 0 20 -7 20 -22 l0 -21 23 20
c40 36 77 43 77 13z m1447 9 c30 -11 73 -47 73 -60 0 -14 -150 -110 -160 -104
-19 11 -10 23 42 56 28 19 56 37 62 42 17 11 -14 27 -54 27 -70 0 -111 -54
-86 -115 17 -40 42 -55 91 -55 45 0 71 13 87 45 9 17 17 22 27 16 12 -8 11
-15 -5 -43 -55 -94 -187 -85 -238 16 -31 64 -1 142 68 172 38 16 57 17 93 3z
m293 -9 c0 -14 -7 -20 -21 -20 -11 0 -34 -13 -50 -29 -28 -28 -29 -34 -29
-115 0 -79 -2 -86 -20 -86 -19 0 -20 7 -20 130 0 123 1 130 20 130 14 0 20 -7
20 -22 l0 -21 23 20 c40 36 77 43 77 13z m91 -87 c19 -59 40 -108 46 -110 6
-2 27 43 48 106 31 93 40 111 57 111 12 0 18 -5 16 -12 -3 -7 -22 -64 -44
-127 -30 -87 -44 -116 -62 -124 -17 -8 -26 -7 -37 4 -12 13 -95 230 -95 251 0
4 8 8 18 8 14 0 26 -24 53 -107z m259 -28 c0 -128 -1 -135 -20 -135 -19 0 -20
7 -20 135 0 128 1 135 20 135 19 0 20 -7 20 -135z m240 110 c0 -22 -4 -25 -39
-25 -56 0 -95 -35 -95 -85 0 -50 39 -85 95 -85 35 0 39 -2 39 -26 0 -26 -2
-26 -46 -21 -56 6 -93 31 -117 80 -43 86 27 185 131 187 28 0 32 -3 32 -25z
m197 14 c30 -11 73 -47 73 -60 0 -14 -150 -110 -160 -104 -19 11 -10 23 42 56
28 19 56 37 62 42 17 11 -14 27 -54 27 -70 0 -111 -54 -86 -115 17 -40 42 -55
91 -55 45 0 71 13 87 45 9 17 17 22 27 16 12 -8 11 -15 -5 -43 -55 -94 -187
-85 -238 16 -31 64 -1 142 68 172 38 16 57 17 93 3z"/>
<path d="M10641 6964 c-37 -48 -19 -128 34 -152 45 -21 155 -14 155 10 0 15
-142 168 -156 168 -7 0 -22 -12 -33 -26z"/>
<path d="M9794 6946 c-22 -18 -28 -32 -27 -62 3 -114 183 -113 183 1 0 77 -95
114 -156 61z"/>
</g>
</svg>
