<svg width="24px"  height="24px"  viewBox="0 0 25 24" fill="none" xmlns="http://www.w3.org/2000/svg">
<path d="M10.4798 15.2952C10.3316 15.295 10.1867 15.251 10.0635 15.1686C9.94026 15.0862 9.84423 14.9691 9.78752 14.8321C9.73081 14.6951 9.71596 14.5444 9.74484 14.399C9.77373 14.2536 9.84506 14.1201 9.94982 14.0152L11.0098 12.9552L9.94881 11.8942C9.81212 11.7528 9.73644 11.5634 9.73805 11.3667C9.73967 11.1701 9.81845 10.9819 9.95744 10.8428C10.0964 10.7037 10.2845 10.6247 10.4812 10.6229C10.6778 10.6211 10.8673 10.6966 11.0088 10.8332L12.0708 11.8942L13.1308 10.8342C13.2 10.7626 13.2828 10.7055 13.3743 10.6662C13.4659 10.627 13.5643 10.6063 13.6639 10.6055C13.7635 10.6047 13.8622 10.6237 13.9544 10.6615C14.0465 10.6992 14.1302 10.7549 14.2006 10.8254C14.271 10.8958 14.3266 10.9796 14.3643 11.0718C14.402 11.164 14.4209 11.2628 14.42 11.3623C14.4191 11.4619 14.3983 11.5603 14.359 11.6518C14.3196 11.7433 14.2625 11.826 14.1908 11.8952L13.1308 12.9552L14.1898 14.0142C14.3223 14.1564 14.3944 14.3444 14.391 14.5387C14.3876 14.733 14.3088 14.9184 14.1714 15.0558C14.034 15.1932 13.8486 15.2719 13.6543 15.2754C13.46 15.2788 13.272 15.2067 13.1298 15.0742L12.0708 14.0152L11.0098 15.0752C10.9404 15.1451 10.8579 15.2006 10.7669 15.2383C10.6759 15.2761 10.5783 15.2954 10.4798 15.2952Z" fill="#000000" />
<path d="M16.2499 21.75H8.29394C7.09791 21.7258 5.96042 21.2277 5.13157 20.3651C4.30272 19.5025 3.85035 18.346 3.87392 17.15V6.657C3.90403 5.48264 4.38987 4.36607 5.22861 3.54356C6.06736 2.72106 7.19321 2.25715 8.36793 2.25H14.0359C14.4132 2.25062 14.7864 2.32718 15.1335 2.4751C15.4805 2.62302 15.7942 2.83928 16.0559 3.111L19.8459 7.06C20.348 7.58081 20.6278 8.27657 20.6259 9V17.163C20.6382 18.3471 20.1877 19.4892 19.3703 20.346C18.5529 21.2027 17.4333 21.7065 16.2499 21.75ZM8.37093 3.75C7.58903 3.75279 6.83885 4.05953 6.279 4.60538C5.71915 5.15124 5.39351 5.89342 5.37093 6.675V17.163C5.36109 17.5585 5.42926 17.952 5.57154 18.3212C5.71382 18.6903 5.92744 19.0278 6.20017 19.3144C6.47291 19.601 6.79943 19.831 7.16108 19.9914C7.52273 20.1517 7.91244 20.2393 8.30793 20.249H16.2169C17.0068 20.2135 17.7518 19.8719 18.2942 19.2967C18.8367 18.7214 19.1339 17.9576 19.1229 17.167V9C19.124 8.66433 18.9941 8.34147 18.7609 8.1L14.9699 4.15C14.8487 4.02367 14.7033 3.92312 14.5422 3.85439C14.3812 3.78565 14.208 3.75015 14.0329 3.75H8.36793H8.37093Z" fill="#000000" />
<path d="M19.8124 9.2655H17.0734C16.1975 9.26153 15.3588 8.91108 14.7405 8.29069C14.1221 7.6703 13.7745 6.83041 13.7734 5.9545V3.0625C13.7734 2.86359 13.8525 2.67282 13.9931 2.53217C14.1338 2.39151 14.3245 2.3125 14.5234 2.3125C14.7223 2.3125 14.9131 2.39151 15.0538 2.53217C15.1944 2.67282 15.2734 2.86359 15.2734 3.0625V5.9545C15.2737 6.43283 15.4631 6.89165 15.8003 7.2309C16.1375 7.57016 16.5951 7.76233 17.0734 7.7655H19.8104C20.0094 7.7655 20.2001 7.84452 20.3408 7.98517C20.4814 8.12582 20.5604 8.31658 20.5604 8.5155C20.5604 8.71441 20.4814 8.90518 20.3408 9.04583C20.2001 9.18648 20.0094 9.2655 19.8104 9.2655H19.8124Z" fill="#000000" />
</svg>