<svg width="24px"  height="24px"  viewBox="0 0 25 25" fill="none" xmlns="http://www.w3.org/2000/svg">
<path fill-rule="evenodd" clip-rule="evenodd" d="M18.9705 3.14419C20.7689 2.61489 22.4266 4.29028 21.9026 6.08149L17.5689 20.9051C16.9939 22.8704 14.3653 23.2285 13.2912 21.4808L9.60324 15.4789L3.62183 11.7787C1.88379 10.7032 2.23427 8.07066 4.19657 7.49257L18.9705 3.14419ZM20.4629 5.6603C20.6569 4.99716 20.0437 4.39196 19.394 4.58316L4.62045 8.93144C4.62039 8.93145 4.62051 8.93142 4.62045 8.93144C3.90526 9.14229 3.77312 10.1083 4.41105 10.5031L10.5437 14.2968C10.6432 14.3584 10.7269 14.4423 10.7881 14.542L14.5691 20.6954C14.5691 20.6954 14.5691 20.6954 14.5691 20.6954C14.9602 21.3316 15.918 21.2054 16.1292 20.4842C16.1292 20.4842 16.1292 20.4843 16.1292 20.4842L20.4629 5.6603Z" fill="#000000" />
<path fill-rule="evenodd" clip-rule="evenodd" d="M16.5793 8.4445C16.8742 8.73534 16.8775 9.21021 16.5867 9.50513L10.7254 15.4487C10.4346 15.7436 9.95972 15.7469 9.66479 15.4561C9.36986 15.1653 9.36655 14.6904 9.65739 14.3955L15.5186 8.4519C15.8095 8.15697 16.2843 8.15366 16.5793 8.4445Z" fill="#000000" />
</svg>