<svg width="24px"  height="24px"  viewBox="0 0 25 24" fill="none" xmlns="http://www.w3.org/2000/svg">
<path fill-rule="evenodd" clip-rule="evenodd" d="M19.0329 7.15234C19.4471 7.15234 19.7829 7.48813 19.7829 7.90234V9.4731H21.4008C21.815 9.4731 22.1508 9.80889 22.1508 10.2231C22.1508 10.6373 21.815 10.9731 21.4008 10.9731H19.7829V12.5444C19.7829 12.9586 19.4471 13.2944 19.0329 13.2944C18.6187 13.2944 18.2829 12.9586 18.2829 12.5444V10.9731H16.666C16.2518 10.9731 15.916 10.6373 15.916 10.2231C15.916 9.80889 16.2518 9.4731 16.666 9.4731H18.2829V7.90234C18.2829 7.48813 18.6187 7.15234 19.0329 7.15234Z" fill="#000000" />
<path fill-rule="evenodd" clip-rule="evenodd" d="M10.4316 13.4297L10.4316 13.4298C12.5725 13.4501 14.4601 13.6834 15.8349 14.2993C16.5323 14.6117 17.1327 15.0379 17.5573 15.6176C17.9883 16.2061 18.2032 16.9058 18.1986 17.6962L18.1985 17.714L18.1976 17.7317C18.1554 18.5241 17.8661 19.2582 17.3158 19.7971C16.7618 20.3397 16.0018 20.6268 15.1307 20.6268H5.71835C4.84666 20.6268 4.08484 20.3402 3.52984 19.7975C2.9781 19.258 2.68887 18.5224 2.65123 17.7273L2.65039 17.7096V17.6918C2.65039 16.9003 2.86776 16.2003 3.29935 15.6116C3.72483 15.0313 4.32497 14.6045 5.02239 14.2919C6.39702 13.6756 8.28147 13.445 10.4192 13.4298L10.4316 13.4297ZM4.15045 17.6739C4.17621 18.1419 4.34115 18.4929 4.57855 18.725C4.81565 18.9569 5.18271 19.1268 5.71835 19.1268H15.1307C15.6644 19.1268 16.0295 18.9573 16.2663 18.7254C16.5039 18.4927 16.6701 18.1401 16.6987 17.6695C16.6984 17.1793 16.5682 16.8057 16.3472 16.5039C16.117 16.1896 15.7535 15.9065 15.2217 15.6682C14.1391 15.1833 12.5092 14.95 10.4236 14.9298C8.34231 14.9451 6.71687 15.1761 5.63601 15.6606C5.10515 15.8986 4.74089 16.1824 4.50903 16.4986C4.28598 16.8028 4.15358 17.1798 4.15045 17.6739Z" fill="#000000" />
<path fill-rule="evenodd" clip-rule="evenodd" d="M10.4305 4.875C8.88432 4.875 7.63086 6.12846 7.63086 7.67469C7.63086 9.22091 8.88432 10.4744 10.4305 10.4744C11.9768 10.4744 13.2302 9.22092 13.2302 7.67469C13.2302 6.12846 11.9768 4.875 10.4305 4.875ZM6.13086 7.67469C6.13086 5.30004 8.0559 3.375 10.4305 3.375C12.8052 3.375 14.7302 5.30004 14.7302 7.67469C14.7302 10.0493 12.8052 11.9744 10.4305 11.9744C8.0559 11.9744 6.13086 10.0493 6.13086 7.67469Z" fill="#000000" />
</svg>