<svg width="24px"  height="24px"  viewBox="0 0 25 24" fill="none" xmlns="http://www.w3.org/2000/svg">
<path fill-rule="evenodd" clip-rule="evenodd" d="M12.4071 13.6016L12.4071 13.6017C14.7158 13.6236 16.743 13.8754 18.2154 14.535C18.9616 14.8693 19.6003 15.3236 20.0508 15.9388C20.5078 16.5627 20.7364 17.3052 20.7315 18.1468L20.7314 18.1646L20.7305 18.1823C20.6856 19.0252 20.3782 19.8026 19.7966 20.3723C19.2111 20.9457 18.4065 21.2508 17.4796 21.2508H7.32028C6.39274 21.2508 5.58613 20.9461 4.9997 20.3727C4.41653 19.8024 4.10922 19.0234 4.0692 18.1779L4.06836 18.1602V18.1424C4.06836 17.2995 4.29963 16.5566 4.7573 15.9323C5.20886 15.3165 5.84728 14.8615 6.59344 14.527C8.06555 13.867 10.0894 13.6181 12.3946 13.6017L12.4071 13.6016ZM5.56841 18.1245C5.59658 18.6431 5.77964 19.0374 6.04841 19.3002C6.31694 19.5628 6.72879 19.7508 7.32028 19.7508H17.4796C18.069 19.7508 18.4789 19.5632 18.747 19.3006C19.0159 19.0372 19.2003 18.6413 19.2316 18.1201C19.2316 17.5787 19.0877 17.1623 18.8407 16.8251C18.5845 16.4753 18.1828 16.164 17.6022 15.9039C16.4221 15.3753 14.6525 15.1235 12.3991 15.1017C10.1502 15.1181 8.38539 15.3675 7.20706 15.8957C6.62746 16.1555 6.22493 16.4675 5.96698 16.8193C5.71788 17.159 5.57155 17.5789 5.56841 18.1245Z" fill="#000000" />
<path fill-rule="evenodd" clip-rule="evenodd" d="M12.4076 4.25C10.7058 4.25 9.32617 5.6296 9.32617 7.33141C9.32617 9.03323 10.7058 10.4128 12.4076 10.4128C14.1094 10.4128 15.489 9.03323 15.489 7.33141C15.489 5.6296 14.1094 4.25 12.4076 4.25ZM7.82617 7.33141C7.82617 4.80117 9.87734 2.75 12.4076 2.75C14.9378 2.75 16.989 4.80117 16.989 7.33141C16.989 9.86166 14.9378 11.9128 12.4076 11.9128C9.87734 11.9128 7.82617 9.86166 7.82617 7.33141Z" fill="#000000" />
</svg>